<svg width="2626" height="501" viewBox="0 0 2626 501" fill="none" xmlns="http://www.w3.org/2000/svg">
<path fill-rule="evenodd" clip-rule="evenodd" d="M250.527 500.002C166.118 500.002 97.6915 431.712 97.6915 347.471V81.061C97.6915 151.576 136.757 177.59 178.604 187.696C204.34 193.911 231.127 194.109 250.527 194.941C334.936 194.941 403.362 263.231 403.362 347.471C403.362 431.712 334.936 500.002 250.527 500.002ZM178.604 347.126C178.604 386.96 210.96 419.25 250.873 419.25C290.786 419.25 323.141 386.96 323.141 347.126C323.141 307.293 290.786 275.002 250.873 275.002C210.96 275.002 178.604 307.293 178.604 347.126Z" fill="url(#paint0_linear_2_167)"/>
<path d="M97 81.7514C97 152.266 136.066 178.28 177.913 188.386V81.7514C177.913 81.7514 177.913 0.999937 97 1V81.7514Z" fill="url(#paint1_linear_2_167)"/>
<path d="M258.48 125.923C283.497 125.923 303.777 105.838 303.777 81.0613C303.777 56.2848 283.497 36.1995 258.48 36.1995C233.463 36.1995 213.183 56.2848 213.183 81.0613C213.183 105.838 233.463 125.923 258.48 125.923Z" fill="url(#paint2_linear_2_167)"/>
<path d="M578.09 376H536.254V126.977H583.9V228.91C590.873 221.938 598.952 216.514 608.139 212.641C617.436 208.656 627.507 206.664 638.354 206.664C653.627 206.664 667.185 210.427 679.027 217.953C690.87 225.368 700.222 235.606 707.084 248.666C713.946 261.615 717.377 276.391 717.377 292.992C717.377 309.483 713.946 324.258 707.084 337.318C700.222 350.378 690.87 360.671 679.027 368.197C667.185 375.613 653.627 379.32 638.354 379.32C626.622 379.32 615.775 377.051 605.814 372.514C595.964 367.865 587.497 361.501 580.414 353.422L578.09 376ZM626.234 336.654C634.314 336.654 641.508 334.773 647.816 331.01C654.236 327.247 659.271 322.045 662.924 315.404C666.687 308.764 668.568 301.238 668.568 292.826C668.568 284.525 666.687 277.11 662.924 270.58C659.271 263.939 654.236 258.738 647.816 254.975C641.508 251.212 634.314 249.33 626.234 249.33C618.598 249.33 611.625 251.046 605.316 254.477C599.118 257.908 594.138 262.611 590.375 268.588C586.612 274.564 584.454 281.426 583.9 289.174V296.479C584.454 304.226 586.612 311.143 590.375 317.23C594.138 323.207 599.118 327.966 605.316 331.508C611.514 334.939 618.487 336.654 626.234 336.654ZM771.83 170.307C765.521 170.307 760.209 168.093 755.893 163.666C751.576 159.239 749.418 153.871 749.418 147.562C749.418 141.254 751.576 135.941 755.893 131.625C760.209 127.198 765.521 124.984 771.83 124.984C778.249 124.984 783.617 127.198 787.934 131.625C792.361 135.941 794.574 141.254 794.574 147.562C794.574 153.871 792.361 159.239 787.934 163.666C783.617 168.093 778.249 170.307 771.83 170.307ZM795.736 376H748.09V209.984H795.736V376ZM984.828 376H943.324L940.834 356.244C934.747 363.549 927.221 369.249 918.256 373.344C909.291 377.328 899.441 379.32 888.705 379.32C877.084 379.32 866.736 377.107 857.66 372.68C848.585 368.142 841.446 361.944 836.244 354.086C831.042 346.117 828.441 337.097 828.441 327.025C828.441 316.4 831.264 307.048 836.908 298.969C842.553 290.889 850.3 284.581 860.15 280.043C870.111 275.395 881.4 273.07 894.018 273.07C901.433 273.07 908.848 273.9 916.264 275.561C923.79 277.221 930.762 279.545 937.182 282.533V278.217C937.182 271.576 935.3 265.876 931.537 261.117C927.885 256.247 922.794 252.484 916.264 249.828C909.844 247.172 902.65 245.844 894.682 245.844C887.045 245.844 879.464 247.061 871.938 249.496C864.522 251.931 857.66 255.583 851.352 260.453L838.402 224.096C849.581 218.34 860.87 214.024 872.27 211.146C883.78 208.158 894.903 206.664 905.639 206.664C921.798 206.664 935.798 209.874 947.641 216.293C959.483 222.602 968.614 231.566 975.033 243.188C981.563 254.698 984.828 268.367 984.828 284.193V376ZM899.164 342.631C905.473 342.631 911.505 341.247 917.26 338.48C923.015 335.714 927.663 331.951 931.205 327.191C934.857 322.432 936.794 317.175 937.016 311.42V310.258C932.146 306.938 926.723 304.392 920.746 302.621C914.88 300.74 908.904 299.799 902.816 299.799C893.741 299.799 886.326 301.791 880.57 305.775C874.815 309.76 871.938 314.906 871.938 321.215C871.938 325.31 873.1 329.018 875.424 332.338C877.859 335.548 881.124 338.093 885.219 339.975C889.314 341.745 893.962 342.631 899.164 342.631ZM1187.7 376H1140.05V291C1140.05 278.051 1136.95 267.924 1130.76 260.619C1124.67 253.204 1116.31 249.496 1105.69 249.496C1094.62 249.496 1085.82 253.37 1079.29 261.117C1072.87 268.754 1069.66 279.158 1069.66 292.328V376H1022.02V209.984H1060.53L1062.19 236.547C1068.17 226.807 1075.97 219.392 1085.6 214.301C1095.23 209.21 1106.57 206.664 1119.63 206.664C1140.77 206.664 1157.37 213.194 1169.44 226.254C1181.61 239.203 1187.7 257.133 1187.7 280.043V376ZM1371.98 349.604C1363.9 358.9 1353.99 366.205 1342.26 371.518C1330.53 376.719 1317.63 379.32 1303.58 379.32C1286.53 379.32 1271.26 375.613 1257.76 368.197C1244.37 360.671 1233.8 350.378 1226.05 337.318C1218.41 324.258 1214.59 309.483 1214.59 292.992C1214.59 276.391 1218.41 261.615 1226.05 248.666C1233.8 235.606 1244.37 225.368 1257.76 217.953C1271.26 210.427 1286.53 206.664 1303.58 206.664C1317.52 206.664 1330.36 209.265 1342.09 214.467C1353.83 219.669 1363.73 226.863 1371.81 236.049L1343.75 265.434C1339.44 260.453 1333.96 256.579 1327.32 253.812C1320.79 250.935 1313.93 249.496 1306.73 249.496C1298.43 249.496 1291.02 251.378 1284.49 255.141C1277.96 258.793 1272.81 263.884 1269.05 270.414C1265.28 276.833 1263.4 284.249 1263.4 292.66C1263.4 301.182 1265.28 308.764 1269.05 315.404C1272.81 322.045 1277.96 327.247 1284.49 331.01C1291.02 334.662 1298.43 336.488 1306.73 336.488C1313.93 336.488 1320.84 335.105 1327.48 332.338C1334.12 329.46 1339.55 325.531 1343.75 320.551L1371.98 349.604ZM1401.2 376V126.977H1448.84V229.574C1460.79 214.301 1477.95 206.664 1500.31 206.664C1521.22 206.664 1537.55 213.139 1549.28 226.088C1561.01 238.926 1566.88 256.911 1566.88 280.043V376H1519.23V292.66C1519.23 278.826 1516.19 268.145 1510.1 260.619C1504.01 253.093 1495.49 249.33 1484.54 249.33C1473.36 249.33 1464.61 253.148 1458.3 260.785C1452 268.422 1448.84 279.047 1448.84 292.66V376H1401.2ZM1628.14 170.307C1621.83 170.307 1616.52 168.093 1612.2 163.666C1607.88 159.239 1605.73 153.871 1605.73 147.562C1605.73 141.254 1607.88 135.941 1612.2 131.625C1616.52 127.198 1621.83 124.984 1628.14 124.984C1634.56 124.984 1639.93 127.198 1644.24 131.625C1648.67 135.941 1650.88 141.254 1650.88 147.562C1650.88 153.871 1648.67 159.239 1644.24 163.666C1639.93 168.093 1634.56 170.307 1628.14 170.307ZM1652.04 376H1604.4V209.984H1652.04V376Z" fill="#00071B"/>
<path d="M1827.05 375H1797.83V151.875H1717.81V125.977H1907.07V151.875H1827.05V375ZM2057.64 354.58C2037.06 370.407 2014.37 378.32 1989.58 378.32C1972.31 378.32 1956.82 374.447 1943.09 366.699C1929.37 358.952 1918.52 348.438 1910.55 335.156C1902.7 321.764 1898.77 306.657 1898.77 289.834C1898.77 273.675 1902.42 259.287 1909.72 246.67C1917.03 233.942 1927.05 223.926 1939.77 216.621C1952.5 209.316 1966.94 205.664 1983.1 205.664C1999.71 205.664 2014.31 209.648 2026.93 217.617C2039.66 225.586 2049.57 236.654 2056.65 250.82C2063.73 264.987 2067.27 281.367 2067.27 299.961V305.273H1928.32C1930.31 315.013 1934.29 323.48 1940.27 330.674C1946.36 337.868 1953.88 343.457 1962.85 347.441C1971.81 351.426 1981.83 353.418 1992.9 353.418C2011.93 353.418 2029.31 347.165 2045.03 334.658L2057.64 354.58ZM1927.32 282.031H2041.54C2040.32 271.738 2037.11 262.773 2031.91 255.137C2026.82 247.389 2020.18 241.357 2011.99 237.041C2003.91 232.725 1994.78 230.566 1984.6 230.566C1974.3 230.566 1965.01 232.725 1956.71 237.041C1948.52 241.357 1941.82 247.389 1936.62 255.137C1931.53 262.773 1928.43 271.738 1927.32 282.031ZM2243.58 351.094C2235.5 359.837 2225.93 366.589 2214.86 371.348C2203.79 375.996 2191.9 378.32 2179.17 378.32C2162.68 378.32 2147.85 374.557 2134.68 367.031C2121.62 359.505 2111.27 349.212 2103.63 336.152C2096.1 323.092 2092.34 308.372 2092.34 291.992C2092.34 275.501 2096.1 260.781 2103.63 247.832C2111.27 234.772 2121.62 224.479 2134.68 216.953C2147.85 209.427 2162.68 205.664 2179.17 205.664C2191.79 205.664 2203.63 207.988 2214.7 212.637C2225.76 217.285 2235.34 223.981 2243.42 232.725L2227.15 249.824C2221.28 243.626 2214.25 238.867 2206.06 235.547C2197.98 232.227 2189.41 230.566 2180.33 230.566C2168.71 230.566 2158.36 233.223 2149.29 238.535C2140.32 243.737 2133.24 250.931 2128.04 260.117C2122.94 269.303 2120.4 279.873 2120.4 291.826C2120.4 303.779 2122.94 314.404 2128.04 323.701C2133.24 332.998 2140.32 340.303 2149.29 345.615C2158.36 350.817 2168.71 353.418 2180.33 353.418C2189.41 353.418 2198.04 351.758 2206.23 348.438C2214.42 345.007 2221.39 340.247 2227.15 334.16L2243.58 351.094ZM2281.93 375V125.977H2309.16V233.887C2321.66 215.072 2341.03 205.664 2367.26 205.664C2389.29 205.664 2406.44 212.249 2418.73 225.42C2431.12 238.48 2437.32 256.742 2437.32 280.205V375H2410.1V286.514C2410.1 268.695 2405.67 254.86 2396.81 245.01C2388.07 235.049 2375.84 230.068 2360.12 230.068C2344.3 230.068 2331.85 235.104 2322.77 245.176C2313.7 255.247 2309.16 269.027 2309.16 286.514V375H2281.93Z" fill="#3199E4"/>
<defs>
<linearGradient id="paint0_linear_2_167" x1="308.786" y1="80.9968" x2="310.167" y2="499.085" gradientUnits="userSpaceOnUse">
<stop stop-color="#63CFF0"/>
<stop offset="1" stop-color="#0083AC"/>
</linearGradient>
<linearGradient id="paint1_linear_2_167" x1="152.878" y1="0.971369" x2="153.922" y2="187.972" gradientUnits="userSpaceOnUse">
<stop stop-color="#63CFF0"/>
<stop offset="1" stop-color="#0083AC"/>
</linearGradient>
<linearGradient id="paint2_linear_2_167" x1="213.368" y1="36.0159" x2="307.896" y2="131.461" gradientUnits="userSpaceOnUse">
<stop stop-color="#B99BEB"/>
<stop offset="1" stop-color="#0083AC"/>
</linearGradient>
</defs>
</svg>
