<svg width="567" height="99" viewBox="0 0 567 99" fill="none" xmlns="http://www.w3.org/2000/svg">
<path d="M20.1822 93.3218L56.0605 57.4435L35.879 37.2619L0.000680712 73.1402L20.1822 93.3218Z" fill="url(#paint0_linear_182_13)"/>
<path d="M20.1815 93.3219L56.0598 57.4436L35.8783 37.2621L-4.90127e-05 73.1404L20.1815 93.3219Z" fill="url(#paint1_linear_182_13)"/>
<path d="M76.1894 37.1632L112 73.0307L91.8184 93.2122C91.8184 93.2122 70.0198 71.4136 56.0523 57.4459C48.1572 49.5545 43.7308 45.13 35.8357 37.2384C44.1602 28.9139 46.697 25.1083 56.0523 25.1083C65.4074 25.1081 76.1894 37.1632 76.1894 37.1632Z" fill="url(#paint2_linear_182_13)"/>
<path d="M56.0521 57.4459C48.157 49.5545 43.7306 45.13 35.8355 37.2384C32.3989 40.6751 24.3398 48.7339 24.3398 48.7339C24.3398 48.7339 35.8355 37.2382 56.0521 57.4459Z" fill="url(#paint3_linear_182_13)"/>
<path d="M67.2974 73.8434L56.0854 62.6315L44.8735 73.8434L56.0854 85.0554L67.2974 73.8434Z" fill="url(#paint4_linear_182_13)"/>
<path d="M67.2974 11.212L56.0854 0L44.8735 11.212L56.0854 22.4239L67.2974 11.212Z" fill="url(#paint5_linear_182_13)"/>
<path d="M139.625 76.9375L144.188 69.5938C145.625 70.7604 147.01 71.7188 148.344 72.4688C149.698 73.1979 151.031 73.7396 152.344 74.0938C153.656 74.4271 155 74.5938 156.375 74.5938C158 74.5938 159.406 74.3646 160.594 73.9062C161.781 73.4479 162.698 72.7917 163.344 71.9375C164.01 71.0833 164.344 70.0938 164.344 68.9688C164.344 67.6562 163.927 66.5521 163.094 65.6562C162.26 64.7604 161.167 63.9792 159.812 63.3125C158.479 62.625 157.031 61.9688 155.469 61.3438C153.948 60.7188 152.417 60.0417 150.875 59.3125C149.354 58.5625 147.948 57.6771 146.656 56.6562C145.385 55.6354 144.354 54.3958 143.562 52.9375C142.792 51.4583 142.406 49.6667 142.406 47.5625C142.406 44.8125 143.094 42.4375 144.469 40.4375C145.865 38.4375 147.771 36.8958 150.188 35.8125C152.604 34.7292 155.365 34.1875 158.469 34.1875C160.656 34.1875 162.927 34.4792 165.281 35.0625C167.656 35.6458 170.021 36.5312 172.375 37.7188L168.594 45.5C167.115 44.6042 165.521 43.8958 163.812 43.375C162.104 42.8542 160.5 42.5938 159 42.5938C157.646 42.5938 156.458 42.8021 155.438 43.2188C154.438 43.6354 153.656 44.2188 153.094 44.9688C152.531 45.6979 152.25 46.5625 152.25 47.5625C152.25 48.75 152.656 49.7812 153.469 50.6562C154.281 51.5104 155.333 52.2708 156.625 52.9375C157.938 53.6042 159.344 54.2708 160.844 54.9375C162.385 55.6042 163.938 56.3333 165.5 57.125C167.083 57.9167 168.521 58.8542 169.812 59.9375C171.125 61 172.177 62.2812 172.969 63.7812C173.781 65.2604 174.188 67.0417 174.188 69.125C174.188 71.875 173.458 74.2917 172 76.375C170.542 78.4375 168.51 80.0521 165.906 81.2188C163.302 82.3646 160.271 82.9375 156.812 82.9375C153.646 82.9375 150.615 82.4271 147.719 81.4062C144.823 80.3854 142.125 78.8958 139.625 76.9375ZM195.094 82.625C191.885 82.625 189.01 81.9271 186.469 80.5312C183.927 79.1146 181.927 77.1875 180.469 74.75C179.031 72.2917 178.312 69.5 178.312 66.375C178.312 63.2708 179.031 60.5 180.469 58.0625C181.927 55.6042 183.927 53.6667 186.469 52.25C189.01 50.8333 191.885 50.125 195.094 50.125C198.302 50.125 201.156 50.8333 203.656 52.25C206.177 53.6667 208.156 55.6042 209.594 58.0625C211.052 60.5 211.781 63.2708 211.781 66.375C211.781 69.5 211.052 72.2917 209.594 74.75C208.156 77.1875 206.177 79.1146 203.656 80.5312C201.156 81.9271 198.302 82.625 195.094 82.625ZM195.062 74.5938C196.5 74.5938 197.781 74.2396 198.906 73.5312C200.052 72.8021 200.948 71.8229 201.594 70.5938C202.26 69.3438 202.594 67.9271 202.594 66.3438C202.594 64.7812 202.26 63.3854 201.594 62.1562C200.948 60.9271 200.052 59.9583 198.906 59.25C197.781 58.5208 196.5 58.1562 195.062 58.1562C193.604 58.1562 192.302 58.5208 191.156 59.25C190.031 59.9583 189.135 60.9271 188.469 62.1562C187.823 63.3854 187.5 64.7812 187.5 66.3438C187.5 67.9271 187.823 69.3438 188.469 70.5938C189.135 71.8229 190.031 72.8021 191.156 73.5312C192.302 74.2396 193.604 74.5938 195.062 74.5938ZM227.094 82H217.5V35.125H227.094V82ZM262.625 82H254.812L254.344 78.2812C253.198 79.6562 251.781 80.7292 250.094 81.5C248.406 82.25 246.552 82.625 244.531 82.625C242.344 82.625 240.396 82.2083 238.688 81.375C236.979 80.5208 235.635 79.3542 234.656 77.875C233.677 76.375 233.188 74.6771 233.188 72.7812C233.188 70.7812 233.719 69.0208 234.781 67.5C235.844 65.9792 237.302 64.7917 239.156 63.9375C241.031 63.0625 243.156 62.625 245.531 62.625C246.927 62.625 248.323 62.7812 249.719 63.0938C251.135 63.4062 252.448 63.8438 253.656 64.4062V63.5938C253.656 62.3438 253.302 61.2708 252.594 60.375C251.906 59.4583 250.948 58.75 249.719 58.25C248.51 57.75 247.156 57.5 245.656 57.5C244.219 57.5 242.792 57.7292 241.375 58.1875C239.979 58.6458 238.688 59.3333 237.5 60.25L235.062 53.4062C237.167 52.3229 239.292 51.5104 241.438 50.9688C243.604 50.4062 245.698 50.125 247.719 50.125C250.76 50.125 253.396 50.7292 255.625 51.9375C257.854 53.125 259.573 54.8125 260.781 57C262.01 59.1667 262.625 61.7396 262.625 64.7188V82ZM246.5 75.7188C247.688 75.7188 248.823 75.4583 249.906 74.9375C250.99 74.4167 251.865 73.7083 252.531 72.8125C253.219 71.9167 253.583 70.9271 253.625 69.8438V69.625C252.708 69 251.688 68.5208 250.562 68.1875C249.458 67.8333 248.333 67.6562 247.188 67.6562C245.479 67.6562 244.083 68.0312 243 68.7812C241.917 69.5312 241.375 70.5 241.375 71.6875C241.375 72.4583 241.594 73.1562 242.031 73.7812C242.49 74.3854 243.104 74.8646 243.875 75.2188C244.646 75.5521 245.521 75.7188 246.5 75.7188ZM278.594 82H269.625V50.75H277.438L277.75 56.1562C278.792 54.2604 280.208 52.7812 282 51.7188C283.792 50.6562 285.844 50.125 288.156 50.125C288.823 50.125 289.49 50.1771 290.156 50.2812C290.844 50.3646 291.542 50.5 292.25 50.6875L291.125 58.75C289.75 58.3542 288.448 58.1562 287.219 58.1562C285.49 58.1562 283.969 58.5521 282.656 59.3438C281.365 60.1146 280.365 61.1979 279.656 62.5938C278.948 63.9688 278.594 65.5833 278.594 67.4375V82Z" fill="#FD7003"/>
<path d="M354.062 82H348.562V42.8438L332.906 74.125H327.938L312.344 43.0312V82H306.844V35.125H313.938L330.438 68.3438L346.875 35.125H354.062V82ZM389 82H384.594L384.25 77.875C383.104 79.3542 381.646 80.5208 379.875 81.375C378.104 82.2083 376.125 82.625 373.938 82.625C371.688 82.625 369.677 82.1875 367.906 81.3125C366.135 80.4167 364.74 79.1979 363.719 77.6562C362.719 76.1146 362.219 74.3646 362.219 72.4062C362.219 70.3438 362.76 68.5312 363.844 66.9688C364.948 65.3854 366.438 64.1458 368.312 63.25C370.208 62.3542 372.354 61.9062 374.75 61.9062C376.312 61.9062 377.906 62.1042 379.531 62.5C381.156 62.875 382.604 63.3958 383.875 64.0625V62.75C383.875 61.0833 383.458 59.6667 382.625 58.5C381.792 57.3125 380.677 56.4062 379.281 55.7812C377.885 55.1354 376.344 54.8125 374.656 54.8125C373.198 54.8125 371.708 55.0833 370.188 55.625C368.667 56.1458 367.208 56.9583 365.812 58.0625L364.125 53.6562C365.938 52.4896 367.844 51.6146 369.844 51.0312C371.844 50.4271 373.823 50.125 375.781 50.125C378.49 50.125 380.823 50.6771 382.781 51.7812C384.76 52.8646 386.292 54.4167 387.375 56.4375C388.458 58.4375 389 60.8125 389 63.5625V82ZM374.844 77.9375C376.448 77.9375 377.917 77.6042 379.25 76.9375C380.583 76.2708 381.667 75.3125 382.5 74.0625C383.333 72.7917 383.792 71.2917 383.875 69.5625V69.0312C382.729 68.1354 381.438 67.4479 380 66.9688C378.583 66.4688 377.135 66.2188 375.656 66.2188C373.344 66.2188 371.406 66.7812 369.844 67.9062C368.302 69.0312 367.531 70.4583 367.531 72.1875C367.531 73.2708 367.844 74.25 368.469 75.125C369.115 76 369.99 76.6875 371.094 77.1875C372.198 77.6875 373.448 77.9375 374.844 77.9375ZM427.344 82H422.219V63.9688C422.219 61.1562 421.427 58.9271 419.844 57.2812C418.281 55.6354 416.146 54.8125 413.438 54.8125C411.5 54.8125 409.76 55.25 408.219 56.125C406.677 56.9792 405.458 58.1875 404.562 59.75C403.667 61.3125 403.219 63.125 403.219 65.1875V82H398.094V50.75H402.562L402.75 55.8125C403.896 53.9792 405.479 52.5729 407.5 51.5938C409.542 50.6146 411.833 50.125 414.375 50.125C418.354 50.125 421.51 51.3229 423.844 53.7188C426.177 56.1146 427.344 59.3438 427.344 63.4062V82ZM461.625 82H457.219L456.875 77.875C455.729 79.3542 454.271 80.5208 452.5 81.375C450.729 82.2083 448.75 82.625 446.562 82.625C444.312 82.625 442.302 82.1875 440.531 81.3125C438.76 80.4167 437.365 79.1979 436.344 77.6562C435.344 76.1146 434.844 74.3646 434.844 72.4062C434.844 70.3438 435.385 68.5312 436.469 66.9688C437.573 65.3854 439.062 64.1458 440.938 63.25C442.833 62.3542 444.979 61.9062 447.375 61.9062C448.938 61.9062 450.531 62.1042 452.156 62.5C453.781 62.875 455.229 63.3958 456.5 64.0625V62.75C456.5 61.0833 456.083 59.6667 455.25 58.5C454.417 57.3125 453.302 56.4062 451.906 55.7812C450.51 55.1354 448.969 54.8125 447.281 54.8125C445.823 54.8125 444.333 55.0833 442.812 55.625C441.292 56.1458 439.833 56.9583 438.438 58.0625L436.75 53.6562C438.562 52.4896 440.469 51.6146 442.469 51.0312C444.469 50.4271 446.448 50.125 448.406 50.125C451.115 50.125 453.448 50.6771 455.406 51.7812C457.385 52.8646 458.917 54.4167 460 56.4375C461.083 58.4375 461.625 60.8125 461.625 63.5625V82ZM447.469 77.9375C449.073 77.9375 450.542 77.6042 451.875 76.9375C453.208 76.2708 454.292 75.3125 455.125 74.0625C455.958 72.7917 456.417 71.2917 456.5 69.5625V69.0312C455.354 68.1354 454.062 67.4479 452.625 66.9688C451.208 66.4688 449.76 66.2188 448.281 66.2188C445.969 66.2188 444.031 66.7812 442.469 67.9062C440.927 69.0312 440.156 70.4583 440.156 72.1875C440.156 73.2708 440.469 74.25 441.094 75.125C441.74 76 442.615 76.6875 443.719 77.1875C444.823 77.6875 446.073 77.9375 447.469 77.9375ZM484 82C481 82 478.302 81.3021 475.906 79.9062C473.531 78.5104 471.656 76.6146 470.281 74.2188C468.906 71.8021 468.219 69.0833 468.219 66.0625C468.219 63.0208 468.906 60.3021 470.281 57.9062C471.656 55.5104 473.531 53.6146 475.906 52.2188C478.302 50.8229 481.01 50.125 484.031 50.125C486.448 50.125 488.667 50.5833 490.688 51.5C492.708 52.3958 494.427 53.6458 495.844 55.25L496.094 50.75H500.625V81.1875C500.625 84.6875 499.938 87.7083 498.562 90.25C497.188 92.8125 495.229 94.7812 492.688 96.1562C490.146 97.5521 487.125 98.25 483.625 98.25C478.667 98.25 474.354 96.6042 470.688 93.3125L472.938 89.1875C475.792 92.1458 479.281 93.625 483.406 93.625C485.885 93.625 488.021 93.1042 489.812 92.0625C491.625 91.0417 493.021 89.5938 494 87.7188C495 85.8438 495.5 83.625 495.5 81.0625V77.2188C494.083 78.6979 492.385 79.8646 490.406 80.7188C488.448 81.5729 486.312 82 484 82ZM484.438 77.4688C486.479 77.4688 488.333 77.0104 490 76.0938C491.667 75.1562 493 73.8854 494 72.2812C495 70.6562 495.5 68.8229 495.5 66.7812V65.3438C495.5 63.2812 495 61.4479 494 59.8438C493 58.2396 491.667 56.9792 490 56.0625C488.333 55.125 486.479 54.6562 484.438 54.6562C482.333 54.6562 480.448 55.1562 478.781 56.1562C477.115 57.1562 475.792 58.5208 474.812 60.25C473.854 61.9583 473.375 63.8958 473.375 66.0625C473.375 68.2292 473.854 70.1771 474.812 71.9062C475.792 73.6354 477.115 75 478.781 76C480.448 76.9792 482.333 77.4688 484.438 77.4688ZM537.438 78.1562C533.562 81.1354 529.292 82.625 524.625 82.625C521.375 82.625 518.458 81.8958 515.875 80.4375C513.292 78.9792 511.25 77 509.75 74.5C508.271 71.9792 507.531 69.1354 507.531 65.9688C507.531 62.9271 508.219 60.2188 509.594 57.8438C510.969 55.4479 512.854 53.5625 515.25 52.1875C517.646 50.8125 520.365 50.125 523.406 50.125C526.531 50.125 529.281 50.875 531.656 52.375C534.052 53.875 535.917 55.9583 537.25 58.625C538.583 61.2917 539.25 64.375 539.25 67.875V68.875H513.094C513.469 70.7083 514.219 72.3021 515.344 73.6562C516.469 75.0104 517.875 76.0625 519.562 76.8125C521.271 77.5625 523.167 77.9375 525.25 77.9375C528.833 77.9375 532.104 76.7604 535.062 74.4062L537.438 78.1562ZM512.906 64.5H534.406C534.177 62.5625 533.573 60.875 532.594 59.4375C531.635 57.9792 530.385 56.8438 528.844 56.0312C527.323 55.2188 525.604 54.8125 523.688 54.8125C521.75 54.8125 520 55.2188 518.438 56.0312C516.896 56.8438 515.635 57.9792 514.656 59.4375C513.698 60.875 513.115 62.5625 512.906 64.5ZM551.594 82H546.469V50.75H550.969L551.188 56.9375C552.271 54.7917 553.792 53.125 555.75 51.9375C557.729 50.7292 560 50.125 562.562 50.125C563.125 50.125 563.698 50.1562 564.281 50.2188C564.865 50.2812 565.448 50.375 566.031 50.5L565.406 55.125C564.26 54.8542 563.125 54.7188 562 54.7188C559.958 54.7188 558.146 55.2188 556.562 56.2188C555 57.2188 553.781 58.5938 552.906 60.3438C552.031 62.0938 551.594 64.1042 551.594 66.375V82Z" fill="#CE041C"/>
<defs>
<linearGradient id="paint0_linear_182_13" x1="65.9622" y1="28.492" x2="10.8834" y2="83.8644" gradientUnits="userSpaceOnUse">
<stop stop-color="#FD7003"/>
<stop offset="1" stop-color="#CE041C"/>
</linearGradient>
<linearGradient id="paint1_linear_182_13" x1="66.5515" y1="28.3826" x2="11.2232" y2="84.0024" gradientUnits="userSpaceOnUse">
<stop offset="0.116376" stop-opacity="0.6"/>
<stop offset="0.569303" stop-opacity="0"/>
</linearGradient>
<linearGradient id="paint2_linear_182_13" x1="46.2215" y1="26.7778" x2="102.352" y2="82.4328" gradientUnits="userSpaceOnUse">
<stop stop-color="#FD7003"/>
<stop offset="1" stop-color="#CE041C"/>
</linearGradient>
<linearGradient id="paint3_linear_182_13" x1="46.2213" y1="26.7778" x2="102.352" y2="82.4328" gradientUnits="userSpaceOnUse">
<stop stop-color="#FD7003"/>
<stop offset="1" stop-color="#CE041C"/>
</linearGradient>
<linearGradient id="paint4_linear_182_13" x1="56.1314" y1="62.6315" x2="56.1314" y2="86.2571" gradientUnits="userSpaceOnUse">
<stop stop-color="#B99BEB"/>
<stop offset="1" stop-color="#CE041C"/>
</linearGradient>
<linearGradient id="paint5_linear_182_13" x1="56.1314" y1="4.78759e-05" x2="56.1314" y2="23.6256" gradientUnits="userSpaceOnUse">
<stop stop-color="#B99BEB"/>
<stop offset="1" stop-color="#CE041C"/>
</linearGradient>
</defs>
</svg>
